<?xml version="1.0" encoding="UTF-8" standalone="no"?>
<!-- Created with Inkscape (http://www.inkscape.org/) -->

<svg
   width="543mm"
   height="67mm"
   viewBox="0 0 543 67"
   version="1.1"
   id="svg5"
   inkscape:version="1.1 (c68e22c387, 2021-05-23)"
   sodipodi:docname="underlinespecialreversed.svg"
   xmlns:inkscape="http://www.inkscape.org/namespaces/inkscape"
   xmlns:sodipodi="http://sodipodi.sourceforge.net/DTD/sodipodi-0.dtd"
   xmlns="http://www.w3.org/2000/svg"
   xmlns:svg="http://www.w3.org/2000/svg">
  <sodipodi:namedview
     id="namedview7"
     pagecolor="#ffffff"
     bordercolor="#999999"
     borderopacity="1"
     inkscape:pageshadow="0"
     inkscape:pageopacity="0"
     inkscape:pagecheckerboard="0"
     inkscape:document-units="mm"
     showgrid="false"
     width="405mm"
     inkscape:zoom="0.36168631"
     inkscape:cx="1090.7242"
     inkscape:cy="377.39886"
     inkscape:window-width="1920"
     inkscape:window-height="1001"
     inkscape:window-x="-9"
     inkscape:window-y="-9"
     inkscape:window-maximized="1"
     inkscape:current-layer="layer1" />
  <defs
     id="defs2" />
  <g
     inkscape:label="Layer 1"
     inkscape:groupmode="layer"
     id="layer1">
    <path
       id="path696"
       style="fill:none;stroke:#f1d6ab;stroke-width:0.264583px;stroke-linecap:butt;stroke-linejoin:miter;stroke-opacity:1"
       d="m 540.22298,19.23432 0.74131,15.393244 M 271.76232,33.896036 c 62.20465,-96.799521 224.4245,77.532884 268.46066,-14.661717 M 271.76232,33.896036 c 72.44603,-83.266261 225.16581,92.926124 269.20197,0.731528" />
    <path
       style="fill:#f1d6ab;fill-opacity:1;stroke:#f1d6ab;stroke-width:0.0457205;stroke-opacity:1"
       d="m 364.34621,13.250177 c 0,2.352868 0.009,4.277942 0.0206,4.277942 0.0516,0 3.45328,1.049866 4.87151,1.503486 8.53751,2.730728 16.98213,5.826144 28.46351,10.433447 l 3.29442,1.321996 13.71359,-0.0013 13.71357,-0.0013 -2.60604,-0.960596 c -1.43336,-0.528325 -3.91255,-1.44549 -5.50931,-2.038138 -15.25067,-5.660303 -20.32799,-7.513704 -26.495,-9.671632 -10.91332,-3.818729 -20.28257,-6.746092 -28.14094,-8.7924617 -0.64123,-0.166981 -1.20187,-0.313875 -1.24588,-0.326429 -0.0758,-0.02162 -0.08,0.202671 -0.08,4.2551157 z"
       id="path20328" />
    <path
       style="fill:#f1d6ab;fill-opacity:1;stroke:#f1d6ab;stroke-width:0.365763;stroke-opacity:1"
       d="m 538.60942,23.028496 c -9.53823,17.134721 -24.78667,25.165669 -46.07351,24.265676 -14.46131,-0.611418 -30.44288,-4.41747 -54.94047,-13.08422 l -9.18474,-3.249374 -13.04377,0.09612 -13.04378,0.09612 15.279,6.370941 c 37.71688,15.726945 52.45471,20.746723 68.38339,23.29174 4.9466,0.790344 16.05836,1.089249 19.91873,0.53581 6.70587,-0.961382 12.2854,-2.915819 17.43165,-6.106073 5.6768,-3.519151 12.65296,-11.493598 16.22359,-18.545156 l 1.08045,-2.133772 -0.25053,-6.27879 c -0.1378,-3.453334 -0.35589,-6.478265 -0.48467,-6.722068 -0.14041,-0.265811 -0.65899,0.319921 -1.29534,1.463053 z"
       id="path20367" />
    <path
       style="fill:#f1d6ab;fill-opacity:1;stroke:#f1d6ab;stroke-width:0.365763;stroke-opacity:1"
       d="m 319.67734,4.2925473 c -14.33566,1.592468 -26.15015,6.7686807 -35.98706,15.7668087 -2.85257,2.609328 -7.90446,8.253811 -7.90453,8.831743 -2e-5,0.164246 1.11097,-0.705786 2.46887,-1.933405 3.34147,-3.020894 8.39665,-6.58027 12.16163,-8.56307 17.9581,-9.4574887 39.33109,-10.2965147 67.95783,-2.66777 l 5.92641,1.579329 V 13.195794 9.0854053 l -3.93196,-0.919044 c -5.5296,-1.292471 -13.07324,-2.698062 -18.01385,-3.356483 -5.14116,-0.685146 -18.43631,-0.988443 -22.67734,-0.517331 z"
       id="path20406" />
    <path
       style="fill:#f1d6ab;fill-opacity:1;stroke:#f1d6ab;stroke-width:0.365763;stroke-opacity:1"
       d="m 414.50153,30.866145 c 0.55321,0.08381 1.45849,0.08381 2.0117,0 0.55322,-0.0838 0.1006,-0.152373 -1.00584,-0.152373 -1.10643,0 -1.55908,0.06857 -1.00586,0.152373 z"
       id="path20445" />
    <path
       style="fill:#f1d6ab;fill-opacity:1;stroke:#f1d6ab;stroke-width:0.365763;stroke-opacity:1"
       d="m 409.22058,31.243637 c 3.08027,0.06124 8.01809,0.06111 10.9729,-2.65e-4 2.95481,-0.06141 0.43461,-0.111516 -5.60051,-0.111352 -6.0351,1.64e-4 -8.45267,0.05041 -5.37239,0.111651 z"
       id="path20484" />
    <path
       style="fill:#f1d6ab;fill-opacity:1;stroke:#f1d6ab;stroke-width:0.365763;stroke-opacity:1"
       d="m 364.66625,13.402114 v 4.012231 l 4.84637,1.535472 c 5.79788,1.836934 14.67611,5.056251 24.44301,8.863232 l 7.16068,2.791116 6.73833,0.05463 6.73833,0.05463 -4.38915,0.304017 c -2.41405,0.167212 -5.21214,0.224769 -6.21799,0.127908 -1.90662,-0.183603 -1.79888,-0.06528 0.91441,1.004218 1.00355,0.395568 2.65624,1.083826 4.48594,1.868162 0.65087,0.279003 1.67719,0.712277 2.28068,0.962829 2.02348,0.840068 3.65255,1.554321 4.29276,1.88214 0.34933,0.178866 0.81214,0.325213 1.02851,0.325213 0.34846,0 1.15139,0.335484 5.65164,2.361422 1.40504,0.632526 2.42855,1.014248 3.06535,1.14323 0.27776,0.05626 0.68101,0.278289 0.89612,0.4934 0.21513,0.215109 0.59145,0.39111 0.83629,0.39111 0.24485,0 1.20161,0.324247 2.12614,0.720548 0.92454,0.396301 1.80229,0.741717 1.95059,0.767596 0.14827,0.02588 0.59878,0.230727 1.00113,0.455223 0.40235,0.224497 0.81383,0.425752 0.9144,0.447236 0.1006,0.02148 0.67667,0.253553 1.28019,0.515707 1.12008,0.486551 2.21329,0.934723 3.8405,1.574464 0.50292,0.197726 1.20023,0.504892 1.54954,0.682591 0.34933,0.177699 0.81822,0.323088 1.042,0.323088 0.39659,0 2.43809,0.821349 3.71293,1.493803 0.34933,0.184259 0.81822,0.335015 1.04201,0.335015 0.22378,0 0.92554,0.22927 1.55945,0.509487 1.17888,0.521108 2.54471,1.016397 2.70537,0.981036 0.0493,-0.01088 1.01623,0.389996 2.14865,0.890799 1.13239,0.500803 2.19231,0.91055 2.35535,0.91055 0.16306,0 0.67749,0.144875 1.14324,0.321945 0.46572,0.17707 0.9449,0.300514 1.06487,0.274323 0.11996,-0.02619 0.49029,0.178273 0.82298,0.454369 0.33266,0.276092 0.60484,0.379386 0.60484,0.229536 0,-0.149849 0.24691,-0.06755 0.54867,0.18288 0.30175,0.250436 0.54864,0.332732 0.54864,0.182883 0,-0.149849 0.24688,-0.06755 0.54864,0.182883 0.30175,0.250433 0.54864,0.332729 0.54864,0.182882 0,-0.149849 0.20574,-0.110402 0.4572,0.08766 0.25146,0.198062 0.95099,0.492834 1.5545,0.65505 1.64227,0.441418 1.63902,0.440444 1.73739,0.519724 0.0503,0.04054 0.36965,0.127405 0.70969,0.193035 0.67527,0.130331 3.07909,0.852554 3.95377,1.1879 0.7003,0.268483 1.08607,0.379637 2.10453,0.606382 0.45339,0.100939 0.95869,0.266565 1.12292,0.368057 0.16422,0.101494 0.69852,0.26698 1.18737,0.36775 0.48881,0.100771 1.30024,0.282392 1.80318,0.403603 0.50292,0.121208 1.2436,0.292878 1.64592,0.381481 0.40236,0.08861 1.14303,0.252857 1.64595,0.365004 0.50292,0.112146 1.49048,0.282517 2.19459,0.378603 0.70408,0.09609 1.55506,0.2595 1.89103,0.363148 1.18766,0.366382 3.9475,0.79642 7.07017,1.101675 2.22996,0.217987 15.55549,0.211677 17.00799,-0.0081 0.70411,-0.106514 1.69167,-0.281353 2.19459,-0.388533 0.50292,-0.107177 1.48228,-0.289576 2.17636,-0.405326 0.69408,-0.11575 2.09312,-0.541673 3.10898,-0.946494 1.01587,-0.40482 2.01163,-0.77675 2.21282,-0.826508 0.48718,-0.120499 3.10512,-1.225888 4.02339,-1.69882 5.57075,-2.869068 12.10236,-8.931005 15.65965,-14.533669 0.56603,-0.891458 1.25431,-1.846019 1.52956,-2.121246 0.27522,-0.275228 1.07042,-1.693191 1.7671,-3.151034 1.22449,-2.562315 1.26264,-2.772471 1.14466,-6.308254 -0.14954,-4.481566 -0.48749,-9.038003 -0.685,-9.235511 -0.0806,-0.08063 -0.25501,0.195003 -0.38751,0.612502 -0.1325,0.417502 -0.35671,0.759092 -0.49824,0.759092 -0.14152,0 -0.66537,0.776904 -1.16408,1.726449 -0.49874,0.949547 -1.03961,1.895959 -1.20193,2.103141 -0.16232,0.207179 -1.14988,1.530792 -2.19458,2.941362 -2.6493,3.57718 -6.87383,7.731723 -9.30614,9.152004 -0.65381,0.38177 -1.18875,0.823232 -1.18875,0.981027 0,0.157798 -0.24688,0.286904 -0.54864,0.286904 -0.30175,0 -0.54864,0.164592 -0.54864,0.365762 0,0.201171 -0.12345,0.33704 -0.27432,0.301935 -0.4818,-0.112104 -2.28602,0.898755 -2.28602,1.280792 0,0.202406 -0.10041,0.26761 -0.22313,0.144899 -0.12271,-0.122713 -1.32868,0.340323 -2.67996,1.028973 -1.35128,0.688647 -2.85568,1.325464 -3.34309,1.415145 -0.48742,0.08968 -0.92737,0.195866 -0.97766,0.235961 -0.0503,0.0401 -0.25601,0.114048 -0.4572,0.16434 -0.20117,0.05029 -0.40691,0.124608 -0.4572,0.165145 -0.0503,0.04054 -0.33833,0.133789 -0.64008,0.207222 -0.30176,0.07343 -0.91898,0.225433 -1.37163,0.337778 -2.45938,0.610433 -3.03829,0.719526 -6.30941,1.189003 -3.71012,0.532484 -15.62426,0.278818 -20.48275,-0.436097 -0.50294,-0.07401 -1.57279,-0.225298 -2.37746,-0.336209 -1.36941,-0.188743 -2.29497,-0.347866 -4.29774,-0.738865 -0.45262,-0.08836 -1.56363,-0.27151 -2.4689,-0.406984 -0.90527,-0.135475 -1.93397,-0.398151 -2.28603,-0.583727 -0.35203,-0.185579 -0.64008,-0.266657 -0.64008,-0.180181 0,0.137356 -1.27328,-0.122579 -3.38331,-0.690684 -0.35205,-0.09479 -0.96927,-0.254633 -1.37162,-0.355219 -1.15822,-0.289552 -2.3309,-0.580081 -2.92611,-0.724924 -0.30176,-0.07343 -0.54864,-0.1587 -0.54864,-0.189484 0,-0.06708 -0.71982,-0.24933 -2.15971,-0.546838 -0.58436,-0.120735 -1.32501,-0.360043 -1.64595,-0.531797 -0.32091,-0.171757 -0.70694,-0.328512 -0.85783,-0.34835 -0.15087,-0.01984 -0.31546,-0.0483 -0.36576,-0.06325 -0.0503,-0.01495 -0.50292,-0.09916 -1.00584,-0.18714 -0.50292,-0.08798 -1.16131,-0.267271 -1.46307,-0.398433 -0.30175,-0.131162 -0.67207,-0.273267 -0.82296,-0.315786 -0.15086,-0.04252 -0.3566,-0.118459 -0.4572,-0.168751 -0.10059,-0.0503 -0.34747,-0.132591 -0.54864,-0.182883 -0.20119,-0.05029 -0.40693,-0.124608 -0.4572,-0.165147 -0.0503,-0.04054 -0.36967,-0.127402 -0.70972,-0.193035 -0.69492,-0.134128 -3.11679,-0.864589 -3.95377,-1.192506 -0.30176,-0.118221 -0.67209,-0.24974 -0.82299,-0.292259 -0.15086,-0.04252 -0.3566,-0.118459 -0.4572,-0.168751 -0.10056,-0.0503 -0.34747,-0.132591 -0.54864,-0.182883 -0.20116,-0.05029 -0.44804,-0.13259 -0.54864,-0.182882 -0.10059,-0.05029 -0.34747,-0.132588 -0.54864,-0.18288 -0.20119,-0.0503 -0.44807,-0.132591 -0.54864,-0.182883 -0.10059,-0.05029 -0.30633,-0.12623 -0.45722,-0.168751 -0.15087,-0.04252 -0.60349,-0.20197 -1.00584,-0.354328 -0.40235,-0.15236 -1.143,-0.410755 -1.64595,-0.574212 -0.50292,-0.163457 -1.24359,-0.421851 -1.64592,-0.574212 -0.40235,-0.15236 -0.85497,-0.311808 -1.00587,-0.354327 -0.15086,-0.04252 -0.3566,-0.118459 -0.4572,-0.168751 -0.10056,-0.05029 -0.34747,-0.132591 -0.54864,-0.182883 -0.20116,-0.05029 -0.44807,-0.132588 -0.54864,-0.182882 -0.10059,-0.05029 -0.34747,-0.132588 -0.54864,-0.18288 -0.20119,-0.05029 -0.44807,-0.132591 -0.54866,-0.182883 -0.10057,-0.05029 -0.34745,-0.132588 -0.54864,-0.182883 -0.20117,-0.05029 -0.44805,-0.132588 -0.54864,-0.18288 -0.1006,-0.05029 -0.30634,-0.119036 -0.4572,-0.15276 -0.97893,-0.218818 -3.27584,-1.099714 -3.65763,-1.402749 -0.25149,-0.199583 -0.45723,-0.240276 -0.45723,-0.09043 0,0.14985 -0.24688,0.06755 -0.54864,-0.182882 -0.30175,-0.250434 -0.54864,-0.332732 -0.54864,-0.182883 0,0.14985 -0.20608,0.101423 -0.45796,-0.107614 -0.25186,-0.209039 -2.0624,-0.386927 -4.02339,-0.395309 -7.37923,-0.03154 -8.87743,-0.197601 -3.5741,-0.396142 l 5.29492,-0.198225 -13.27652,-4.883788 c -17.65733,-6.495283 -26.2556,-9.500928 -34.6212,-12.102314 -6.60447,-2.053744 -13.57975,-4.0444737 -14.17333,-4.0450427 -0.15088,-1.4e-4 -0.27433,1.8052437 -0.27433,4.0119747 z"
       id="path20523" />
    <path
       style="fill:#f1d6ab;fill-opacity:1;stroke:#f1d6ab;stroke-width:0.365763;stroke-opacity:1"
       d="m 323.32846,4.0216163 c -0.097,0.09137 -1.49312,0.271904 -3.10248,0.401188 -3.04964,0.244985 -4.01883,0.36577 -5.85221,0.729347 -0.60351,0.119677 -1.59107,0.314286 -2.19458,0.432462 -0.60352,0.118171 -1.26189,0.256288 -1.46306,0.30693 -0.20117,0.05064 -0.85954,0.216402 -1.46305,0.368371 -0.60351,0.151966 -1.96217,0.587163 -3.01924,0.967105 -1.05707,0.379939 -2.00426,0.690949 -2.10489,0.691123 -0.10061,1.8e-4 -0.77833,0.249098 -1.50603,0.553149 -0.7277,0.304054 -1.41159,0.552826 -1.51976,0.552826 -0.20521,0 -6.30423,3.0505977 -7.57792,3.7903117 -3.29058,1.911054 -8.76177,6.225423 -11.70443,9.229667 -2.87737,2.937597 -4.93781,5.244473 -4.93781,5.5284 0,0.242966 1.89506,-0.946561 2.37747,-1.49233 0.20117,-0.227594 1.35332,-1.144791 2.56034,-2.038215 1.20702,-0.893421 2.24945,-1.757537 2.3165,-1.920258 0.0671,-0.162719 0.3551,-0.295852 0.64009,-0.295852 0.28499,0 0.51816,-0.164595 0.51816,-0.365763 0,-0.20117 0.24689,-0.365765 0.54865,-0.365765 0.30175,0 0.54864,-0.124415 0.54864,-0.276476 0,-0.152064 0.45264,-0.479571 1.00586,-0.727798 0.55321,-0.248224 1.58192,-0.813339 2.28602,-1.255815 0.70409,-0.442476 1.52407,-0.846672 1.82218,-0.898224 0.2981,-0.05155 0.59985,-0.267279 0.67056,-0.479404 0.0707,-0.212124 0.32303,-0.385683 0.5607,-0.385683 0.23768,0 1.04693,-0.329504 1.79834,-0.732234 0.75141,-0.402733 1.3662,-0.643832 1.3662,-0.535779 0,0.108054 0.37033,-0.0093 0.82297,-0.260651 0.45263,-0.25141 0.90526,-0.47716 1.00585,-0.501664 0.10058,-0.0245 0.42977,-0.135638 0.73152,-0.24697 2.22407,-0.82056 4.04328,-1.429329 4.70607,-1.57481 0.79065,-0.173543 1.5755,-0.365199 3.06641,-0.748797 2.43539,-0.626605 5.88945,-1.193015 9.23553,-1.514478 3.38897,-0.32558 14.28617,-0.305665 17.73953,0.03244 3.72003,0.364197 5.1065,0.524635 6.40086,0.740691 0.60351,0.100737 1.67337,0.269356 2.37746,0.374703 0.7041,0.105351 1.77396,0.293473 2.37747,0.418057 0.60351,0.124582 1.46806,0.289904 1.92124,0.367377 0.45317,0.07747 1.19384,0.215167 1.64593,0.305982 0.4521,0.09082 1.31577,0.261147 1.91928,0.378511 0.98812,0.192151 2.29309,0.505415 3.29187,0.790228 0.20117,0.05737 0.7361,0.19622 1.18873,0.308565 0.45264,0.112345 1.15216,0.286562 1.5545,0.387146 l 1.46305,0.365763 c 1.81483,0.453707 2.43729,0.597577 3.29187,0.760852 0.50293,0.09609 1.1613,0.277106 1.46306,0.402259 0.30175,0.125153 0.75438,0.284988 1.00585,0.35519 0.25146,0.0702 0.66295,0.185071 0.91441,0.255272 0.25146,0.0702 0.70409,0.226489 1.00585,0.347311 0.30175,0.120822 3.26444,1.118304 6.58374,2.216629 6.25059,2.068258 14.07883,4.938466 23.66078,8.675179 5.52261,2.15368 5.57996,2.166909 9.69273,2.23651 l 4.13724,0.06999 -3.47474,0.204311 -3.47475,0.204309 2.9261,1.222346 c 1.60936,0.67229 4.81894,2.01555 7.13241,2.985021 52.79731,22.125133 68.20617,26.664343 88.88052,26.182849 7.7506,-0.180507 13.29994,-1.507292 19.50924,-4.664432 6.70322,-3.408273 14.90027,-12.105786 18.89733,-20.051123 l 1.19338,-2.372135 -0.26046,-6.032968 c -0.14324,-3.318132 -0.39224,-6.268487 -0.55332,-6.556343 -0.21997,-0.393049 -0.54628,-0.121672 -1.31043,1.089834 -3.05416,4.842119 -3.75713,5.858569 -5.71111,8.257786 -6.62379,8.133115 -15.80943,13.280549 -27.27973,15.286961 -6.07809,1.063196 -18.68321,0.632862 -27.71087,-0.946036 -4.54004,-0.794028 -14.44421,-3.127748 -18.28818,-4.309237 -1.20703,-0.370991 -4.00511,-1.217618 -6.21798,-1.881394 -2.21287,-0.663776 -8.71209,-2.823972 -14.4427,-4.800436 -9.26439,-3.195246 -10.72393,-3.600392 -13.16749,-3.655062 l -2.7482,-0.06149 2.19458,-0.212836 2.19459,-0.212836 -4.20627,-1.525424 c -2.31346,-0.838985 -10.04938,-3.656131 -17.1909,-6.260324 -17.95324,-6.546737 -38.59151,-13.2456557 -40.80769,-13.2456557 -0.25999,0 -0.54404,0.370338 -0.63122,0.8229677 -0.13684,0.710457 -0.16532,0.686409 -0.20832,-0.175913 -0.0502,-1.0072657 -0.19263,-1.0913427 -2.61016,-1.5410737 -0.50292,-0.09356 -1.40819,-0.26158 -2.01169,-0.373377 -0.60351,-0.111797 -1.50878,-0.309592 -2.0117,-0.439545 -1.35346,-0.349718 -1.89507,-0.466875 -3.10899,-0.672504 -0.60351,-0.10223 -1.42648,-0.256831 -1.82882,-0.343556 -0.40234,-0.08673 -1.22531,-0.244375 -1.82882,-0.350333 -0.60351,-0.105955 -1.50219,-0.277973 -1.99706,-0.382264 -0.49487,-0.104286 -1.56473,-0.291267 -2.37746,-0.41551 -0.81274,-0.12424 -1.88918,-0.289851 -2.3921,-0.368017 -3.66903,-0.570269 -20.48195,-1.480555 -20.85504,-1.129138 z"
       id="path20562" />
    <path
       style="fill:#f1d6ab;fill-opacity:1;stroke:#f1d6ab;stroke-width:0.365763;stroke-opacity:1"
       d="m 319.31157,4.3067553 c -16.50571,1.855737 -30.80043,9.3158857 -41.21556,21.5096347 -1.27327,1.490707 -2.24423,2.781181 -2.15769,2.867718 0.0865,0.08654 1.77468,-1.151337 3.75144,-2.750833 5.83277,-4.719595 11.90361,-8.430435 16.58048,-10.134915 11.59499,-4.225793 17.48416,-5.158266 30.53949,-4.835541 18.21755,0.45034 33.92651,4.387112 65.05038,16.302056 5.16792,1.978403 9.26714,3.341574 10.05849,3.344892 0.93403,0.0039 1.17936,0.104558 0.8158,0.334658 -0.39529,0.25019 -0.17613,0.474316 0.91441,0.935122 57.92304,24.475276 74.99063,29.817195 95.25266,29.812745 10.00836,-0.0021 17.95846,-2.087899 24.64689,-6.466073 5.22792,-3.422158 12.21718,-11.305805 15.78406,-17.8039 l 1.3771,-2.508816 -0.22048,-6.416188 c -0.12125,-3.528904 -0.37528,-6.571017 -0.56451,-6.760252 -0.21492,-0.214916 -1.48061,1.350412 -3.37182,4.170076 -10.1727,15.166724 -24.15244,21.859896 -43.86922,21.003546 -14.87532,-0.646076 -26.31019,-3.259386 -52.08796,-11.904123 -6.62025,-2.220148 -12.42219,-4.036634 -12.89315,-4.036634 -0.47098,0 -0.81518,-0.175167 -0.76488,-0.389263 0.16261,-0.692272 -39.33775,-14.818669 -52.94428,-18.934303 -6.77077,-2.0479857 -8.11607,-2.3715077 -8.9522,-2.1528587 -0.40729,0.106511 -0.74053,0.05081 -0.74053,-0.123769 0,-0.403302 -1.48973,-0.800375 -8.11718,-2.163546 -14.04961,-2.889803 -27.52939,-3.949797 -36.87174,-2.899433 z"
       id="path20601" />
    <path
       style="fill:#f1d6ab;fill-opacity:1;stroke:#f1d6ab;stroke-width:1.38241;stroke-opacity:1"
       d=""
       id="path20640"
       transform="scale(0.26458333)" />
    <path
       style="fill:#f1d6ab;fill-opacity:1;stroke:#f1d6ab;stroke-width:1.38241;stroke-opacity:1"
       d=""
       id="path20753"
       transform="scale(0.26458333)" />
    <path
       style="fill:#f1d6ab;fill-opacity:1;stroke:#f1d6ab;stroke-width:0.0646583;stroke-opacity:1"
       d="m 401.58314,31.023469 c 0.24357,0.105413 0.45112,0.191659 0.46124,0.191659 0.0101,0 0.0336,-0.05819 0.0522,-0.129318 0.0198,-0.07586 0.0882,-0.129317 0.16538,-0.129317 0.0724,0 0.14953,-0.0291 0.17151,-0.06466 0.0257,-0.04156 -0.19814,-0.06383 -0.6266,-0.06234 l -0.66657,0.0024 z"
       id="path20792" />
    <path
       style="fill:#f1d6ab;fill-opacity:1;stroke:#f1d6ab;stroke-width:0.0646583;stroke-opacity:1"
       d="m 274.85909,29.697751 c -0.8602,1.166762 -1.4516,2.007266 -1.4516,2.063038 0,0.02257 0.6081,-0.57834 1.35134,-1.335344 0.74323,-0.757008 1.34374,-1.384464 1.33447,-1.394349 -0.009,-0.0099 -0.0914,0.01035 -0.18248,0.04499 -0.18161,0.06905 -0.273,0.0055 -0.31463,-0.218893 -0.0173,-0.09347 -0.21285,0.129477 -0.7371,0.840561 z"
       id="path20831" />
    <path
       style="fill:#f1d6ab;fill-opacity:1;stroke:#f1d6ab;stroke-width:0.0646583;stroke-opacity:1"
       d="m 325.9425,3.5148173 c -11.18804,0.369215 -20.29825,2.479556 -28.74069,6.6576517 -8.22749,4.071723 -15.32772,10.004462 -21.50127,17.965814 -1.43352,1.848649 -3.91578,5.412216 -3.93417,5.647931 -0.0183,0.234257 0.16454,0.08543 0.83289,-0.67805 0.94824,-1.083207 3.69751,-3.880139 4.87418,-4.958686 6.58758,-6.038215 13.86063,-10.453182 21.77387,-13.217395 6.01529,-2.101231 12.30631,-3.375481 18.54822,-3.756951 4.10117,-0.250643 12.64462,-0.05544 16.87586,0.385585 0.32006,0.03336 0.63285,0.06116 0.69508,0.06177 0.10649,0.0011 0.11316,-0.221678 0.11316,-3.7813977 v -3.782521 l -0.21014,-0.0011 c -0.11558,-5.29e-4 -0.88526,-0.04337 -1.71039,-0.09515 -0.82514,-0.05178 -2.59894,-0.125415 -3.94177,-0.163631 -1.34284,-0.03822 -2.45715,-0.08638 -2.47625,-0.107024 -0.0769,-0.08317 5.80617,0.07756 7.74045,0.21147 0.51236,0.03547 0.5981,0.02719 0.5981,-0.05776 0,-0.114938 -0.23767,-0.14101 -2.19839,-0.24115 -1.31083,-0.06695 -6.2112,-0.126714 -7.33874,-0.08951 z m -11.49439,1.35872 c -0.0215,0.02148 -0.0772,0.02379 -0.12393,0.0051 -0.0516,-0.02064 -0.0363,-0.03596 0.0391,-0.03907 0.0682,-0.0028 0.10635,0.01249 0.0849,0.03396 z m -0.38795,0.06466 c -0.0215,0.02148 -0.0772,0.02379 -0.12393,0.0051 -0.0516,-0.02064 -0.0363,-0.03596 0.0391,-0.03907 0.0682,-0.0028 0.10635,0.01246 0.0849,0.03396 z m -0.28962,0.06842 c -0.0444,0.01794 -0.11719,0.01794 -0.16164,0 -0.0444,-0.01794 -0.008,-0.03261 0.0808,-0.03261 0.0889,0 0.12528,0.01468 0.0808,0.03261 z m -0.35696,0.0609 c -0.0215,0.02148 -0.0773,0.02379 -0.12393,0.0051 -0.0516,-0.02064 -0.0363,-0.03596 0.0391,-0.03906 0.0682,-0.0028 0.10635,0.01249 0.0849,0.03396 z m -0.31117,0.05111 c -0.0477,0.04517 -1.10359,0.244891 -1.13399,0.214493 -0.0161,-0.01614 0.1827,-0.0735 0.44186,-0.127455 0.4807,-0.100084 0.74038,-0.132739 0.69213,-0.08704 z m -2.67794,0.617837 c -3.42734,0.859837 -6.3272,1.800897 -9.21383,2.990051 -9.05889,3.7318337 -17.08015,9.6652097 -23.64961,17.4937487 -0.33573,0.400074 -0.62555,0.727409 -0.64405,0.727409 -0.0345,0 0.1828,-0.264933 1.1404,-1.390158 8.57034,-10.070499 19.09905,-16.6323827 31.63326,-19.7150217 2.00492,-0.493088 1.92694,-0.475287 2.09166,-0.477435 0.0711,-7.94e-4 -0.5399,0.166206 -1.35783,0.371406 z M 276.89905,27.034635 c 0,0.01228 -0.0655,0.07774 -0.14548,0.145481 l -0.14548,0.123174 0.12317,-0.145481 c 0.11575,-0.136718 0.16779,-0.174916 0.16779,-0.123174 z m -0.6145,0.769757 c -0.19702,0.257826 -0.42681,0.605645 -0.51064,0.772933 -0.0838,0.167285 -0.16686,0.289716 -0.18451,0.272068 -0.0176,-0.01765 -0.10738,0.0637 -0.19941,0.180779 -0.092,0.117081 -0.21204,0.26379 -0.26669,0.326025 -0.0546,0.06223 -0.0993,0.140801 -0.0993,0.174596 0,0.0338 -0.0364,0.08471 -0.0808,0.113155 -0.0444,0.02844 -0.10992,0.09765 -0.14548,0.153799 -0.07,0.110514 -0.32377,0.461029 -0.85672,1.183278 -0.1867,0.253015 -0.33893,0.489209 -0.33828,0.524875 0.001,0.06503 2.39118,-2.331768 2.39118,-2.39798 0,-0.01937 -0.0509,-0.01939 -0.11315,-2.6e-5 -0.0622,0.01937 -0.1568,0.004 -0.21014,-0.03407 -0.0808,-0.05769 -0.0774,-0.06293 0.0203,-0.03131 0.15279,0.04948 0.36341,-0.06354 0.95207,-0.510895 0.38859,-0.295309 0.22923,-0.117065 -0.81895,0.915956 -0.71578,0.705437 -1.66869,1.673537 -2.11756,2.151329 -0.44888,0.477793 -0.81614,0.845328 -0.81614,0.816745 0,-0.185197 3.59432,-5.080029 3.73032,-5.080029 0.0122,0 -0.13897,0.210947 -0.33599,0.468773 z"
       id="path20870" />
    <path
       style="fill:#f1d6ab;fill-opacity:1;stroke:#f1d6ab;stroke-width:0.0161646;stroke-opacity:1"
       d="m 276.28443,28.852171 c -0.16441,0.119036 -0.1701,0.125204 -0.1701,0.184388 v 0.06123 l 0.18222,-0.1817 c 0.10022,-0.09994 0.18222,-0.183642 0.18222,-0.186007 0,-0.0145 -0.0429,0.01244 -0.19434,0.122089 z"
       id="path20983" />
    <path
       style="fill:#f1d6ab;fill-opacity:1;stroke:#f1d6ab;stroke-width:0.0161646;stroke-opacity:1"
       d="m 275.59983,28.668791 c -0.077,0.102465 -0.13344,0.186301 -0.1255,0.186301 0.008,0 0.0231,-0.01048 0.0338,-0.02328 0.0106,-0.01281 0.0348,-0.02553 0.0538,-0.02829 0.0254,-0.0037 0.0547,-0.04502 0.11161,-0.157591 0.0424,-0.08392 0.0747,-0.155025 0.0717,-0.158015 -0.003,-0.003 -0.0684,0.0784 -0.14537,0.180869 z"
       id="path21059" />
    <path
       style="fill:#f1d6ab;fill-opacity:1;stroke:#f1d6ab;stroke-width:0.0610946;stroke-opacity:1"
       d=""
       id="path21170"
       transform="scale(0.26458333)" />
    <path
       style="fill:#f1d6ab;fill-opacity:1;stroke:#f1d6ab;stroke-width:0.0161646;stroke-opacity:1"
       d="m 273.46395,31.764861 c -0.0269,0.02977 -0.0325,0.03043 -0.0668,0.008 -0.0369,-0.02421 -0.0393,-0.02172 -0.18451,0.195281 -0.0809,0.120888 -0.14472,0.22157 -0.14181,0.223737 0.003,0.0021 0.10627,-0.100317 0.22969,-0.227748 0.12342,-0.127429 0.2173,-0.231691 0.20861,-0.231691 -0.009,0 -0.029,0.01461 -0.0452,0.03247 z"
       id="path21320" />
    <path
       style="fill:#f1d6ab;fill-opacity:1;stroke:#f1d6ab;stroke-width:0.0161646;stroke-opacity:1"
       d="m 304.41931,7.1335073 c -2.56524,0.867082 -5.33849,2.035689 -7.7671,3.2729387 -6.25972,3.189012 -11.81252,7.418575 -16.83553,12.823605 -0.28268,0.304175 -0.90702,0.993179 -1.05806,1.167648 l -0.0525,0.06062 1.58985,-2.22e-4 1.58985,-2.23e-4 0.37178,-0.284482 c 4.90671,-3.754536 10.27151,-6.730582 15.90638,-8.823844 1.81418,-0.673941 3.91109,-1.342289 5.91182,-1.884272 l 0.49706,-0.134652 v -2.955861 c 0,-1.6257217 -0.005,-2.9525357 -0.0121,-2.9484747 -0.007,0.0041 -0.17215,0.06351 -0.36774,0.132099 -3.82687,1.342056 -7.47282,3.0505637 -10.92729,5.1205627 -2.2718,1.361324 -4.52565,2.933517 -6.67589,4.656833 -1.18207,0.947373 -2.41059,2.010556 -3.59642,3.112408 -0.80829,0.751043 -2.06415,1.994627 -2.71596,2.689405 -0.1378,0.146886 -0.25684,0.267732 -0.26452,0.268544 -0.0332,0.0035 1.00486,-1.077976 1.72837,-1.800633 3.84261,-3.83809 7.98227,-7.01622 12.53074,-9.620181 3.15748,-1.807628 6.54211,-3.3367177 10.05028,-4.5404667 0.12447,-0.04271 0.23207,-0.08263 0.23913,-0.08872 0.007,-0.0061 0.0107,-0.06974 0.008,-0.141439 l -0.005,-0.130365 z M 280.00266,23.428374 c 0,0.0026 -0.0418,0.04435 -0.0929,0.09295 l -0.0929,0.08835 0.0883,-0.09295 c 0.0821,-0.08635 0.0975,-0.100351 0.0975,-0.08835 z"
       id="path21470" />
    <path
       style="fill:#f1d6ab;fill-opacity:1;stroke:#f1d6ab;stroke-width:0.0610946;stroke-opacity:1"
       d=""
       id="path21509"
       transform="scale(0.26458333)" />
    <path
       style="fill:#f1d6ab;fill-opacity:1;stroke:#f1d6ab;stroke-width:0.0161646;stroke-opacity:1"
       d="m 304.22534,7.4940423 c -1.44944,0.511881 -2.32041,0.844698 -3.53197,1.34965 -2.52075,1.050589 -5.06878,2.3366437 -7.4034,3.7366787 -3.26683,1.959065 -6.28644,4.195323 -9.17015,6.791205 -0.16712,0.15044 -0.3003,0.277088 -0.29595,0.281438 0.004,0.0043 0.13745,-0.107564 0.29578,-0.248695 2.6344,-2.348289 5.54608,-4.526188 8.451,-6.32124 3.13887,-1.939621 6.37478,-3.5443347 9.87658,-4.8978657 0.63953,-0.247192 2.06341,-0.764403 2.10441,-0.764403 0.0117,0 0.0212,-0.0109 0.0212,-0.02423 0,-0.01334 -0.002,-0.02384 -0.004,-0.02334 -0.002,5.3e-4 -0.1568,0.05487 -0.3435,0.120804 z"
       id="path21548" />
    <path
       id="path696-0"
       style="fill:none;stroke:#f1d6ab;stroke-width:0.264583px;stroke-linecap:butt;stroke-linejoin:miter;stroke-opacity:1"
       d="m 3.3016703,19.234316 -0.74131,15.39325 M 271.76232,33.896036 C 209.55767,-62.903485 47.33783,111.42892 3.3016603,19.234316 M 271.76232,33.896036 C 199.31629,-49.370225 46.59652,126.82216 2.5603503,34.627566" />
    <path
       style="fill:#f1d6ab;fill-opacity:1;stroke:#f1d6ab;stroke-width:0.0457205;stroke-opacity:1"
       d="m 179.17843,13.250176 c 0,2.35287 -0.009,4.27794 -0.0206,4.27794 -0.0516,0 -3.45329,1.04987 -4.87151,1.50349 -8.53751,2.73073 -16.98213,5.82614 -28.46352,10.43345 l -3.29441,1.32199 -13.7136,-0.001 -13.71356,-10e-4 2.60604,-0.9606 c 1.43335,-0.52832 3.91255,-1.44549 5.50931,-2.03813 15.25067,-5.66031 20.32798,-7.51371 26.495,-9.67164 10.91332,-3.81873 20.28257,-6.7461 28.14093,-8.7924697 0.64123,-0.16698 1.20188,-0.31387 1.24588,-0.32642 0.0758,-0.0216 0.08,0.20267 0.08,4.2551097 z"
       id="path20328-2" />
    <path
       style="fill:#f1d6ab;fill-opacity:1;stroke:#f1d6ab;stroke-width:0.365763;stroke-opacity:1"
       d="M 4.9152303,23.028496 C 14.45346,40.163216 29.7019,48.194166 50.98874,47.294176 c 14.4613,-0.61142 30.44288,-4.41747 54.94046,-13.08422 l 9.18475,-3.24938 13.04377,0.0961 13.04378,0.0961 -15.27901,6.37094 c -37.71688,15.72695 -52.4547,20.74673 -68.38338,23.29174 -4.9466,0.79035 -16.05836,1.08925 -19.91874,0.53581 -6.70586,-0.96138 -12.28539,-2.91582 -17.43165,-6.10607 -5.67679,-3.51915 -12.6529497,-11.4936 -16.2235797,-18.54516 l -1.08046,-2.13377 0.25054,-6.27879 c 0.13779,-3.45333 0.35589,-6.47826 0.48466,-6.72207 0.14042,-0.26581 0.659,0.31993 1.29535,1.46306 z"
       id="path20367-9" />
    <path
       style="fill:#f1d6ab;fill-opacity:1;stroke:#f1d6ab;stroke-width:0.365763;stroke-opacity:1"
       d="m 223.84731,4.2925463 c 14.33566,1.59247 26.15015,6.7686797 35.98706,15.7668097 2.85256,2.60933 7.90445,8.25381 7.90452,8.83174 2e-5,0.16425 -1.11096,-0.70578 -2.46886,-1.9334 -3.34148,-3.0209 -8.39665,-6.58027 -12.16164,-8.56308 C 235.1503,8.9371363 213.7773,8.0981063 185.15056,15.726846 l -5.92641,1.57933 v -4.11039 -4.1103797 l 3.93196,-0.91905 c 5.5296,-1.29247 13.07325,-2.69806 18.01386,-3.35648 5.14115,-0.68515 18.43631,-0.98844 22.67734,-0.51733 z"
       id="path20406-4" />
    <path
       style="fill:#f1d6ab;fill-opacity:1;stroke:#f1d6ab;stroke-width:0.365763;stroke-opacity:1"
       d="m 129.02312,30.866146 c -0.55322,0.0838 -1.45849,0.0838 -2.01171,0 -0.55321,-0.0838 -0.10059,-0.15237 1.00584,-0.15237 1.10644,0 1.55909,0.0686 1.00587,0.15237 z"
       id="path20445-6" />
    <path
       style="fill:#f1d6ab;fill-opacity:1;stroke:#f1d6ab;stroke-width:0.365763;stroke-opacity:1"
       d="m 134.30407,31.243636 c -3.08028,0.0612 -8.01809,0.0611 -10.97291,-2.6e-4 -2.95481,-0.0614 -0.4346,-0.11152 5.60052,-0.11136 6.03509,1.7e-4 8.45267,0.0504 5.37239,0.11166 z"
       id="path20484-4" />
    <path
       style="fill:#f1d6ab;fill-opacity:1;stroke:#f1d6ab;stroke-width:0.365763;stroke-opacity:1"
       d="m 178.85839,13.402106 v 4.01224 l -4.84637,1.53547 c -5.79788,1.83693 -14.67611,5.05625 -24.443,8.86323 l -7.16068,2.79112 -6.73834,0.0546 -6.73832,0.0546 4.38915,0.30402 c 2.41404,0.16721 5.21213,0.22477 6.21798,0.1279 1.90662,-0.1836 1.79889,-0.0653 -0.91441,1.00422 -1.00354,0.39557 -2.65623,1.08383 -4.48593,1.86816 -0.65088,0.27901 -1.6772,0.71228 -2.28068,0.96283 -2.02348,0.84007 -3.65255,1.55432 -4.29276,1.88214 -0.34933,0.17887 -0.81214,0.32522 -1.02852,0.32522 -0.34845,0 -1.15139,0.33548 -5.65163,2.36142 -1.40504,0.63252 -2.42856,1.01425 -3.06536,1.14323 -0.27776,0.0563 -0.68101,0.27829 -0.89611,0.4934 -0.21514,0.21511 -0.59145,0.39111 -0.8363,0.39111 -0.24484,0 -1.2016,0.32424 -2.12614,0.72055 -0.92453,0.3963 -1.80229,0.74171 -1.95059,0.76759 -0.14827,0.0259 -0.59877,0.23073 -1.00113,0.45523 -0.40235,0.22449 -0.81383,0.42575 -0.9144,0.44723 -0.10059,0.0215 -0.67667,0.25355 -1.28018,0.51571 -1.12009,0.48655 -2.21329,0.93472 -3.84051,1.57446 -0.50292,0.19773 -1.20023,0.50489 -1.54953,0.68259 -0.34933,0.1777 -0.81823,0.32309 -1.04201,0.32309 -0.39658,0 -2.43808,0.82135 -3.71292,1.4938 -0.34933,0.18426 -0.81823,0.33502 -1.04201,0.33502 -0.22379,0 -0.92554,0.22927 -1.55946,0.50949 -1.17887,0.5211 -2.54471,1.01639 -2.70536,0.98103 -0.0494,-0.0109 -1.01624,0.39 -2.14866,0.8908 -1.13239,0.5008 -2.19231,0.91055 -2.35534,0.91055 -0.16307,0 -0.6775,0.14488 -1.14324,0.32195 -0.46572,0.17707 -0.94491,0.30051 -1.06487,0.27432 -0.11996,-0.0262 -0.4903,0.17827 -0.82299,0.45437 -0.33266,0.27609 -0.60483,0.37938 -0.60483,0.22953 0,-0.14985 -0.24691,-0.0676 -0.54867,0.18288 -0.30176,0.25044 -0.54864,0.33274 -0.54864,0.18289 0,-0.14985 -0.24688,-0.0676 -0.54864,0.18288 -0.30176,0.25043 -0.54864,0.33273 -0.54864,0.18288 0,-0.14985 -0.20574,-0.1104 -0.4572,0.0877 -0.25146,0.19806 -0.95099,0.49284 -1.55451,0.65505 -1.64227,0.44142 -1.63901,0.44045 -1.73738,0.51973 -0.0503,0.0405 -0.36965,0.1274 -0.70969,0.19303 -0.67527,0.13033 -3.07909,0.85256 -3.95378,1.1879 -0.7003,0.26848 -1.08606,0.37964 -2.10452,0.60638 -0.45339,0.10094 -0.95869,0.26657 -1.12292,0.36806 -0.16423,0.10149 -0.69853,0.26698 -1.18737,0.36775 -0.48882,0.10077 -1.30024,0.28239 -1.80319,0.4036 -0.50292,0.12121 -1.24359,0.29288 -1.64592,0.38149 -0.40235,0.0886 -1.14303,0.25285 -1.64595,0.365 -0.50292,0.11214 -1.49047,0.28252 -2.19458,0.3786 -0.70408,0.0961 -1.55506,0.2595 -1.89103,0.36315 -1.18766,0.36638 -3.94751,0.79642 -7.07017,1.10167 -2.22996,0.21799 -15.55549,0.21168 -17.008,-0.008 -0.70411,-0.10651 -1.69167,-0.28135 -2.19459,-0.38853 -0.50292,-0.10718 -1.48227,-0.28957 -2.17635,-0.40532 -0.69408,-0.11575 -2.09312,-0.54168 -3.10899,-0.9465 -1.01587,-0.40482 -2.01163,-0.77675 -2.21282,-0.82651 -0.48717,-0.12049 -3.10512,-1.22588 -4.02338,-1.69882 -5.57075,-2.86906 -12.10236,-8.931 -15.6596597,-14.53366 -0.56602,-0.89146 -1.25431,-1.84602 -1.52955,-2.12125 -0.27522,-0.27523 -1.07043,-1.69319 -1.7671,-3.15104 -1.22449,-2.56231 -1.26265,-2.77247 -1.14467,-6.30825 0.14954,-4.48156 0.4875,-9.038 0.68501,-9.23551 0.0806,-0.0806 0.255,0.195 0.38751,0.6125 0.1325,0.4175 0.35671,0.75909 0.49823,0.75909 0.14153,0 0.66538,0.77691 1.16409,1.72645 0.49874,0.94955 1.0396,1.89596 1.20192,2.10314 0.16232,0.20718 1.14988,1.5308 2.19459,2.94137 2.6492997,3.57718 6.8738197,7.73172 9.3061397,9.152 0.65381,0.38177 1.18874,0.82323 1.18874,0.98103 0,0.15779 0.24688,0.2869 0.54864,0.2869 0.30176,0 0.54864,0.16459 0.54864,0.36576 0,0.20117 0.12346,0.33704 0.27432,0.30194 0.48181,-0.11211 2.28603,0.89875 2.28603,1.28079 0,0.20241 0.10041,0.26761 0.22312,0.1449 0.12272,-0.12271 1.32869,0.34032 2.67997,1.02897 1.35128,0.68865 2.85567,1.32547 3.34309,1.41515 0.48741,0.0897 0.92736,0.19586 0.97766,0.23596 0.0503,0.0401 0.25601,0.11405 0.4572,0.16434 0.20116,0.0503 0.4069,0.12461 0.4572,0.16514 0.0503,0.0405 0.33832,0.13379 0.64008,0.20722 0.30176,0.0734 0.91898,0.22544 1.37162,0.33778 2.45939,0.61044 3.03829,0.71953 6.30942,1.18901 3.71012,0.53248 15.62425,0.27881 20.48274,-0.4361 0.50295,-0.074 1.57279,-0.2253 2.37747,-0.33621 1.3694,-0.18874 2.29497,-0.34787 4.29773,-0.73886 0.45262,-0.0884 1.56364,-0.27151 2.46891,-0.40699 0.90527,-0.13547 1.93397,-0.39815 2.28602,-0.58373 0.35203,-0.18557 0.64008,-0.26665 0.64008,-0.18018 0,0.13736 1.27328,-0.12258 3.38331,-0.69068 0.35206,-0.0948 0.96928,-0.25463 1.37163,-0.35522 1.15821,-0.28955 2.3309,-0.58008 2.9261,-0.72492 0.30176,-0.0734 0.54864,-0.1587 0.54864,-0.18949 0,-0.0671 0.71983,-0.24933 2.15972,-0.54684 0.58436,-0.12073 1.325,-0.36004 1.64594,-0.53179 0.32092,-0.17176 0.70694,-0.32852 0.85784,-0.34835 0.15086,-0.0198 0.31546,-0.0483 0.36576,-0.0632 0.0503,-0.0149 0.50292,-0.0992 1.00584,-0.18714 0.50292,-0.088 1.16131,-0.26727 1.46306,-0.39844 0.30176,-0.13116 0.67207,-0.27326 0.82296,-0.31578 0.15087,-0.0425 0.35661,-0.11846 0.4572,-0.16875 0.1006,-0.0503 0.34748,-0.13259 0.54864,-0.18289 0.20119,-0.0503 0.40693,-0.1246 0.4572,-0.16514 0.0503,-0.0405 0.36968,-0.12741 0.70972,-0.19304 0.69493,-0.13413 3.11679,-0.86459 3.95378,-1.1925 0.30175,-0.11823 0.67209,-0.24974 0.82298,-0.29226 0.15087,-0.0425 0.35661,-0.11846 0.4572,-0.16875 0.10057,-0.0503 0.34748,-0.13259 0.54864,-0.18289 0.20116,-0.0503 0.44805,-0.13259 0.54864,-0.18288 0.1006,-0.0503 0.34748,-0.13259 0.54864,-0.18288 0.20119,-0.0503 0.44807,-0.13259 0.54864,-0.18288 0.1006,-0.0503 0.30634,-0.12623 0.45723,-0.16875 0.15086,-0.0425 0.60349,-0.20197 1.00584,-0.35433 0.40235,-0.15236 1.143,-0.41076 1.64594,-0.57421 0.50292,-0.16346 1.2436,-0.42185 1.64592,-0.57421 0.40236,-0.15236 0.85498,-0.31181 1.00587,-0.35433 0.15087,-0.0425 0.35661,-0.11846 0.4572,-0.16875 0.10057,-0.0503 0.34748,-0.13259 0.54864,-0.18289 0.20116,-0.0503 0.44807,-0.13258 0.54864,-0.18288 0.1006,-0.0503 0.34748,-0.13259 0.54864,-0.18288 0.20119,-0.0503 0.44807,-0.13259 0.54867,-0.18288 0.10057,-0.0503 0.34745,-0.13259 0.54864,-0.18288 0.20116,-0.0503 0.44804,-0.13259 0.54864,-0.18288 0.10059,-0.0503 0.30633,-0.11904 0.4572,-0.15276 0.97893,-0.21882 3.27583,-1.09972 3.65762,-1.40275 0.25149,-0.19959 0.45723,-0.24028 0.45723,-0.0904 0,0.14985 0.24688,0.0676 0.54864,-0.18289 0.30176,-0.25043 0.54864,-0.33273 0.54864,-0.18288 0,0.14985 0.20608,0.10142 0.45797,-0.10761 0.25185,-0.20904 2.0624,-0.38693 4.02338,-0.39531 7.37923,-0.0315 8.87744,-0.1976 3.5741,-0.39614 l -5.29492,-0.19823 13.27653,-4.88379 c 17.65733,-6.49528 26.2556,-9.50093 34.62119,-12.10231 6.60448,-2.05375 13.57976,-4.0444797 14.17334,-4.0450397 0.15088,-1.4e-4 0.27432,1.8052397 0.27432,4.0119697 z"
       id="path20523-5" />
    <path
       style="fill:#f1d6ab;fill-opacity:1;stroke:#f1d6ab;stroke-width:0.365763;stroke-opacity:1"
       d="m 220.19618,4.0216163 c 0.097,0.0914 1.49312,0.2719 3.10248,0.40118 3.04965,0.24499 4.01884,0.36577 5.85222,0.72935 0.60351,0.11968 1.59107,0.31429 2.19458,0.43246 0.60351,0.11817 1.26188,0.25629 1.46306,0.30693 0.20116,0.0506 0.85954,0.21641 1.46305,0.36837 0.60351,0.15197 1.96216,0.58717 3.01923,0.96711 1.05707,0.37994 2.00427,0.69095 2.10489,0.69112 0.10062,1.8e-4 0.77834,0.2491 1.50604,0.55315 0.7277,0.30406 1.41159,0.55283 1.51976,0.55283 0.2052,0 6.30422,3.0505997 7.57791,3.7903097 3.29059,1.91105 8.76178,6.22542 11.70444,9.22967 2.87737,2.9376 4.9378,5.24447 4.9378,5.5284 0,0.24297 -1.89506,-0.94656 -2.37746,-1.49233 -0.20117,-0.22759 -1.35333,-1.14479 -2.56034,-2.03821 -1.20703,-0.89343 -2.24945,-1.75754 -2.31651,-1.92026 -0.067,-0.16272 -0.35509,-0.29586 -0.64008,-0.29586 -0.28499,0 -0.51817,-0.16459 -0.51817,-0.36576 0,-0.20117 -0.24689,-0.36576 -0.54864,-0.36576 -0.30176,0 -0.54865,-0.12442 -0.54865,-0.27648 0,-0.15206 -0.45263,-0.47957 -1.00585,-0.7278 -0.55322,-0.24822 -1.58193,-0.81334 -2.28602,-1.25582 -0.7041,-0.44247 -1.52408,-0.84667 -1.82218,-0.89822 -0.2981,-0.0516 -0.59986,-0.26728 -0.67057,-0.4794 -0.0707,-0.21213 -0.32302,-0.38569 -0.5607,-0.38569 -0.23767,0 -1.04693,-0.3295 -1.79833,-0.73223 -0.75141,-0.40273 -1.3662,-0.64383 -1.3662,-0.53578 0,0.10805 -0.37034,-0.009 -0.82297,-0.26065 -0.45263,-0.25141 -0.90526,-0.47716 -1.00585,-0.50166 -0.10058,-0.0245 -0.42977,-0.13564 -0.73153,-0.24697 -2.22406,-0.82056 -4.04327,-1.42933 -4.70606,-1.57481 -0.79065,-0.17355 -1.5755,-0.3652 -3.06641,-0.7488 -2.43539,-0.62661 -5.88946,-1.19302 -9.23553,-1.51448 -3.38898,-0.32558 -14.28617,-0.30566 -17.73953,0.0324 -3.72004,0.3642 -5.10651,0.52464 -6.40086,0.74069 -0.60351,0.10074 -1.67337,0.26936 -2.37747,0.37471 -0.70409,0.10535 -1.77395,0.29347 -2.37746,0.41805 -0.60351,0.12459 -1.46807,0.28991 -1.92124,0.36738 -0.45317,0.0775 -1.19384,0.21517 -1.64594,0.30598 -0.45209,0.0908 -1.31577,0.26115 -1.91928,0.37851 -0.98811,0.19216 -2.29308,0.50542 -3.29187,0.79023 -0.20117,0.0574 -0.73609,0.19622 -1.18873,0.30857 -0.45263,0.11234 -1.15215,0.28656 -1.55449,0.38714 l -1.46306,0.36577 c -1.81482,0.4537 -2.43729,0.59757 -3.29187,0.76085 -0.50292,0.0961 -1.1613,0.2771 -1.46305,0.40226 -0.30176,0.12515 -0.75439,0.28499 -1.00585,0.35519 -0.25146,0.0702 -0.66295,0.18507 -0.91441,0.25527 -0.25147,0.0702 -0.7041,0.22649 -1.00585,0.34731 -0.30176,0.12082 -3.26444,1.1183 -6.58374,2.21663 -6.25059,2.06826 -14.07884,4.93847 -23.66078,8.67518 -5.52262,2.15368 -5.57996,2.16691 -9.69274,2.23651 l -4.13724,0.07 3.47475,0.20431 3.47475,0.20431 -2.92611,1.22235 c -1.60936,0.67229 -4.81894,2.01555 -7.1324,2.98502 C 78.51181,57.485276 63.10295,62.024486 42.42859,61.542996 34.678,61.362486 29.12865,60.035706 22.91936,56.878566 16.21614,53.470286 8.0190803,44.772776 4.0220203,36.827436 l -1.19338,-2.37213 0.26046,-6.03297 c 0.14325,-3.31813 0.39225,-6.26849 0.55332,-6.55634 0.21998,-0.39305 0.54629,-0.12167 1.31043,1.08983 3.05417,4.84212 3.75714,5.85857 5.7111097,8.25779 6.62379,8.13311 15.80944,13.28055 27.27973,15.28696 6.07809,1.06319 18.68321,0.63286 27.71087,-0.94604 4.54004,-0.79403 14.44422,-3.12775 18.28819,-4.30924 1.20703,-0.37099 4.0051,-1.21761 6.21797,-1.88139 2.21287,-0.66378 8.7121,-2.82397 14.44271,-4.80043 9.26438,-3.19525 10.72393,-3.6004 13.16749,-3.65507 l 2.7482,-0.0615 -2.19459,-0.21283 -2.19458,-0.21284 4.20626,-1.52542 c 2.31347,-0.83899 10.04938,-3.65613 17.1909,-6.26033 17.95325,-6.54674 38.59152,-13.2456597 40.8077,-13.2456597 0.25999,0 0.54403,0.37034 0.63121,0.8229697 0.13684,0.71045 0.16532,0.68641 0.20833,-0.17592 0.0502,-1.0072597 0.19263,-1.0913397 2.61015,-1.5410697 0.50293,-0.0936 1.40819,-0.26158 2.0117,-0.37338 0.60351,-0.11179 1.50878,-0.30959 2.0117,-0.43954 1.35346,-0.34972 1.89507,-0.46688 3.10899,-0.67251 0.60351,-0.10223 1.42648,-0.25683 1.82882,-0.34355 0.40234,-0.0867 1.2253,-0.24438 1.82881,-0.35033 0.60351,-0.10596 1.50219,-0.27798 1.99706,-0.38227 0.49487,-0.10428 1.56473,-0.29127 2.37747,-0.41551 0.81273,-0.12424 1.88917,-0.28985 2.3921,-0.36802 3.66903,-0.57026 20.48195,-1.48055 20.85503,-1.12913 z"
       id="path20562-3" />
    <path
       style="fill:#f1d6ab;fill-opacity:1;stroke:#f1d6ab;stroke-width:0.365763;stroke-opacity:1"
       d="m 224.21307,4.3067563 c 16.50571,1.85573 30.80044,9.3158797 41.21557,21.5096297 1.27326,1.49071 2.24423,2.78118 2.15769,2.86772 -0.0865,0.0865 -1.77469,-1.15134 -3.75145,-2.75083 -5.83277,-4.7196 -11.90361,-8.43044 -16.58047,-10.13492 -11.595,-4.22579 -17.48417,-5.15827 -30.53949,-4.83554 -18.21755,0.45034 -33.92652,4.38711 -65.05038,16.30206 -5.16793,1.9784 -9.26714,3.34157 -10.0585,3.34489 -0.93402,0.004 -1.17935,0.10456 -0.8158,0.33466 0.3953,0.25019 0.17614,0.47431 -0.91441,0.93512 -57.92304,24.47528 -74.99062,29.8172 -95.25265,29.81275 -10.00837,-0.002 -17.95846,-2.0879 -24.64689,-6.46608 -5.22793,-3.42216 -12.2171897,-11.3058 -15.7840597,-17.8039 l -1.37711,-2.50881 0.22048,-6.41619 c 0.12126,-3.52891 0.37529,-6.57102 0.56452,-6.76025 0.21492,-0.21492 1.4806,1.35041 3.37182,4.17007 10.1726997,15.16673 24.1524397,21.8599 43.8692097,21.00355 14.87533,-0.64608 26.3102,-3.25939 52.08797,-11.90412 6.62024,-2.22015 12.42218,-4.03664 12.89314,-4.03664 0.47099,0 0.81518,-0.17517 0.76489,-0.38926 -0.16262,-0.69227 39.33775,-14.81867 52.94427,-18.93431 6.77077,-2.0479797 8.11608,-2.3715097 8.9522,-2.1528597 0.40729,0.10651 0.74053,0.0508 0.74053,-0.12377 0,-0.4033 1.48974,-0.80037 8.11719,-2.16354 14.04961,-2.8898 27.52938,-3.9498 36.87173,-2.89943 z"
       id="path20601-2" />
    <path
       style="fill:#f1d6ab;fill-opacity:1;stroke:#f1d6ab;stroke-width:0.0646583;stroke-opacity:1"
       d="m 141.9415,31.023466 c -0.24356,0.10542 -0.45112,0.19166 -0.46123,0.19166 -0.0101,0 -0.0336,-0.0582 -0.0522,-0.12932 -0.0198,-0.0759 -0.0882,-0.12931 -0.16537,-0.12931 -0.0724,0 -0.14954,-0.0291 -0.17152,-0.0647 -0.0257,-0.0416 0.19814,-0.0638 0.62661,-0.0623 l 0.66656,0.002 z"
       id="path20792-1" />
    <path
       style="fill:#f1d6ab;fill-opacity:1;stroke:#f1d6ab;stroke-width:0.0646583;stroke-opacity:1"
       d="m 268.66555,29.697746 c 0.8602,1.16677 1.4516,2.00727 1.4516,2.06304 0,0.0226 -0.6081,-0.57834 -1.35133,-1.33534 -0.74324,-0.75701 -1.34375,-1.38447 -1.33447,-1.39435 0.009,-0.01 0.0914,0.0103 0.18248,0.045 0.18161,0.0691 0.27299,0.006 0.31462,-0.21889 0.0173,-0.0935 0.21285,0.12947 0.7371,0.84056 z"
       id="path20831-2" />
    <path
       style="fill:#f1d6ab;fill-opacity:1;stroke:#f1d6ab;stroke-width:0.0646583;stroke-opacity:1"
       d="m 217.58214,3.5148163 c 11.18805,0.36921 20.29826,2.47955 28.74069,6.6576497 8.22749,4.07172 15.32773,10.00447 21.50128,17.96582 1.43351,1.84865 3.91578,5.41221 3.93416,5.64793 0.0183,0.23425 -0.16453,0.0854 -0.83289,-0.67805 -0.94824,-1.08321 -3.6975,-3.88014 -4.87417,-4.95869 -6.58758,-6.03821 -13.86064,-10.45318 -21.77388,-13.2174 -6.01529,-2.10123 -12.3063,-3.37548 -18.54822,-3.75695 -4.10117,-0.25064 -12.64461,-0.0554 -16.87586,0.38559 -0.32006,0.0334 -0.63284,0.0612 -0.69508,0.0618 -0.10648,0.001 -0.11315,-0.22168 -0.11315,-3.7813997 v -3.78252 l 0.21014,-10e-4 c 0.11558,-5.3e-4 0.88525,-0.0434 1.71039,-0.0952 0.82514,-0.0518 2.59893,-0.12542 3.94177,-0.16363 1.34284,-0.0382 2.45715,-0.0864 2.47625,-0.10703 0.0769,-0.0832 -5.80618,0.0776 -7.74046,0.21147 -0.51235,0.0355 -0.59809,0.0272 -0.59809,-0.0577 0,-0.11494 0.23766,-0.14101 2.19839,-0.24115 1.31082,-0.0669 6.21119,-0.12672 7.33873,-0.0895 z m 11.49439,1.35872 c 0.0215,0.0215 0.0773,0.0238 0.12393,0.005 0.0516,-0.0206 0.0363,-0.036 -0.0391,-0.0391 -0.0682,-0.003 -0.10635,0.0125 -0.0849,0.034 z m 0.38795,0.0647 c 0.0215,0.0215 0.0773,0.0238 0.12393,0.005 0.0516,-0.0206 0.0363,-0.036 -0.0391,-0.0391 -0.0682,-0.003 -0.10635,0.0125 -0.0849,0.034 z m 0.28962,0.0684 c 0.0445,0.0179 0.11719,0.0179 0.16165,0 0.0444,-0.0179 0.008,-0.0326 -0.0808,-0.0326 -0.0889,0 -0.12527,0.0147 -0.0808,0.0326 z m 0.35697,0.0609 c 0.0215,0.0215 0.0772,0.0238 0.12393,0.005 0.0516,-0.0206 0.0363,-0.036 -0.0391,-0.0391 -0.0682,-0.003 -0.10635,0.0125 -0.0849,0.034 z m 0.31117,0.0511 c 0.0477,0.0452 1.10358,0.24489 1.13398,0.2145 0.0161,-0.0161 -0.18269,-0.0735 -0.44186,-0.12746 -0.48069,-0.10008 -0.74037,-0.13274 -0.69212,-0.087 z m 2.67794,0.61784 c 3.42733,0.85984 6.3272,1.8009 9.21383,2.99005 9.05888,3.7318397 17.08015,9.6652097 23.6496,17.4937497 0.33573,0.40008 0.62556,0.72741 0.64406,0.72741 0.0345,0 -0.1828,-0.26493 -1.14041,-1.39016 -8.57033,-10.0705 -19.09905,-16.6323797 -31.63325,-19.7150197 -2.00493,-0.49309 -1.92694,-0.47529 -2.09166,-0.47744 -0.0711,-7.9e-4 0.5399,0.16621 1.35783,0.37141 z m 33.52541,21.2981597 c 0,0.0123 0.0655,0.0777 0.14548,0.14548 l 0.14549,0.12317 -0.12318,-0.14548 c -0.11575,-0.13672 -0.16779,-0.17491 -0.16779,-0.12317 z m 0.6145,0.76976 c 0.19703,0.25782 0.42682,0.60564 0.51064,0.77293 0.0838,0.16728 0.16686,0.28971 0.18451,0.27207 0.0177,-0.0177 0.10739,0.0637 0.19942,0.18078 0.092,0.11708 0.21204,0.26379 0.26668,0.32602 0.0546,0.0622 0.0993,0.1408 0.0993,0.1746 0,0.0338 0.0364,0.0847 0.0808,0.11315 0.0444,0.0284 0.10992,0.0977 0.14548,0.1538 0.07,0.11051 0.32378,0.46103 0.85673,1.18328 0.1867,0.25301 0.33893,0.48921 0.33828,0.52487 -10e-4,0.065 -2.39119,-2.33176 -2.39119,-2.39798 0,-0.0194 0.0509,-0.0194 0.11315,-2e-5 0.0622,0.0194 0.1568,0.004 0.21014,-0.0341 0.0808,-0.0577 0.0774,-0.0629 -0.0203,-0.0313 -0.15279,0.0495 -0.36341,-0.0635 -0.95208,-0.5109 -0.38859,-0.29531 -0.22922,-0.11706 0.81895,0.91596 0.71579,0.70544 1.66869,1.67354 2.11757,2.15133 0.44887,0.47779 0.81613,0.84533 0.81613,0.81674 0,-0.18519 -3.59432,-5.08003 -3.73031,-5.08003 -0.0122,0 0.13896,0.21095 0.33599,0.46878 z"
       id="path20870-0" />
    <path
       style="fill:#f1d6ab;fill-opacity:1;stroke:#f1d6ab;stroke-width:0.0161646;stroke-opacity:1"
       d="m 267.24022,28.852176 c 0.1644,0.11903 0.17009,0.1252 0.17009,0.18438 v 0.0612 l -0.18222,-0.1817 c -0.10022,-0.0999 -0.18222,-0.18364 -0.18222,-0.186 0,-0.0145 0.0429,0.0124 0.19435,0.12209 z"
       id="path20983-4" />
    <path
       style="fill:#f1d6ab;fill-opacity:1;stroke:#f1d6ab;stroke-width:0.0161646;stroke-opacity:1"
       d="m 267.92481,28.668796 c 0.077,0.10246 0.13344,0.1863 0.1255,0.1863 -0.008,0 -0.0231,-0.0105 -0.0337,-0.0233 -0.0106,-0.0128 -0.0348,-0.0255 -0.0538,-0.0283 -0.0254,-0.004 -0.0547,-0.045 -0.11162,-0.15759 -0.0424,-0.0839 -0.0747,-0.15503 -0.0717,-0.15802 0.003,-0.003 0.0684,0.0784 0.14537,0.18087 z"
       id="path21059-7" />
    <path
       style="fill:#f1d6ab;fill-opacity:1;stroke:#f1d6ab;stroke-width:0.0161646;stroke-opacity:1"
       d="m 270.0607,31.764856 c 0.0269,0.0298 0.0325,0.0304 0.0668,0.008 0.0369,-0.0242 0.0393,-0.0217 0.18452,0.19529 0.0809,0.12088 0.14472,0.22157 0.14181,0.22373 -0.003,0.002 -0.10627,-0.10031 -0.2297,-0.22775 -0.12342,-0.12742 -0.21729,-0.23169 -0.2086,-0.23169 0.009,0 0.029,0.0146 0.0452,0.0325 z"
       id="path21320-8" />
    <path
       style="fill:#f1d6ab;fill-opacity:1;stroke:#f1d6ab;stroke-width:0.0161646;stroke-opacity:1"
       d="m 239.10533,7.1335063 c 2.56524,0.86708 5.33849,2.03569 7.7671,3.2729397 6.25972,3.18901 11.81253,7.41857 16.83554,12.8236 0.28268,0.30418 0.90701,0.99318 1.05806,1.16765 l 0.0525,0.0606 -1.58984,-2.2e-4 -1.58985,-2.2e-4 -0.37179,-0.28448 c -4.90671,-3.75454 -10.27151,-6.73059 -15.90638,-8.82385 -1.81418,-0.67394 -3.91109,-1.34229 -5.91181,-1.88427 l -0.49706,-0.13466 v -2.95586 c 0,-1.6257197 0.005,-2.9525297 0.0121,-2.9484697 0.007,0.004 0.17216,0.0635 0.36775,0.1321 3.82686,1.34205 7.47282,3.0505597 10.92728,5.1205597 2.27181,1.36132 4.52566,2.93352 6.6759,4.65683 1.18207,0.94738 2.41059,2.01056 3.59642,3.11242 0.80828,0.75104 2.06415,1.99462 2.71595,2.6894 0.1378,0.14689 0.25684,0.26773 0.26453,0.26854 0.0332,0.004 -1.00487,-1.07797 -1.72838,-1.80063 -3.8426,-3.83809 -7.98226,-7.01622 -12.53074,-9.62018 -3.15748,-1.80763 -6.5421,-3.3367197 -10.05028,-4.5404697 -0.12447,-0.0427 -0.23207,-0.0826 -0.23912,-0.0887 -0.007,-0.006 -0.0107,-0.0697 -0.008,-0.14144 l 0.005,-0.13037 z m 24.41666,16.2948697 c 0,0.003 0.0418,0.0443 0.0929,0.093 l 0.093,0.0883 -0.0883,-0.093 c -0.0821,-0.0864 -0.0975,-0.10035 -0.0975,-0.0883 z"
       id="path21470-7" />
    <path
       style="fill:#f1d6ab;fill-opacity:1;stroke:#f1d6ab;stroke-width:0.0161646;stroke-opacity:1"
       d="m 239.29931,7.4940363 c 1.44944,0.51188 2.3204,0.8447 3.53197,1.34965 2.52074,1.05059 5.06877,2.3366497 7.40339,3.7366797 3.26683,1.95907 6.28644,4.19532 9.17015,6.79121 0.16712,0.15044 0.3003,0.27709 0.29595,0.28144 -0.004,0.004 -0.13745,-0.10757 -0.29577,-0.2487 -2.6344,-2.34829 -5.54608,-4.52619 -8.451,-6.32124 -3.13887,-1.93962 -6.37479,-3.5443397 -9.87658,-4.8978697 -0.63953,-0.24719 -2.06342,-0.7644 -2.10442,-0.7644 -0.0117,0 -0.0212,-0.0109 -0.0212,-0.0242 0,-0.0133 0.002,-0.0238 0.004,-0.0233 0.002,5.3e-4 0.1568,0.0549 0.3435,0.1208 z"
       id="path21548-4" />
  </g>
</svg>
